<svg width="44" height="44" viewBox="0 0 44 44" fill="none" xmlns="http://www.w3.org/2000/svg">
   <g clip-path="url(#clip0)">
      <path
         d="M29.3333 40.3333V33.2383C29.4021 32.3641 29.284 31.4853 28.9869 30.6603C28.6897 29.8352 28.2204 29.0829 27.61 28.4533C33.3667 27.8116 39.4167 25.63 39.4167 15.62C39.4162 13.0603 38.4316 10.5988 36.6667 8.74497C37.5024 6.50556 37.4433 4.03027 36.5017 1.8333C36.5017 1.8333 34.3383 1.19163 29.3333 4.54663C25.1313 3.40781 20.702 3.40781 16.5 4.54663C11.495 1.19163 9.33167 1.8333 9.33167 1.8333C8.39002 4.03027 8.33093 6.50556 9.16667 8.74497C7.38857 10.6126 6.40296 13.0963 6.41667 15.675C6.41667 25.6116 12.4667 27.7933 18.2233 28.5083C17.6202 29.1316 17.155 29.8749 16.8581 30.6898C16.5611 31.5048 16.4391 32.3731 16.5 33.2383V40.3333M16.5 34.8333C7.33333 37.5833 7.33333 30.25 3.66667 29.3333L16.5 34.8333Z"
         stroke="#333652" stroke-width="4" stroke-linecap="round" stroke-linejoin="round" />
   </g>
   <defs>
      <clipPath id="clip0">
         <rect width="44" height="44" fill="white" />
      </clipPath>
   </defs>
</svg>