<svg width="44" height="44" viewBox="0 0 44 44" fill="none" xmlns="http://www.w3.org/2000/svg">
<path d="M29.3333 14.6665C32.2507 14.6665 35.0486 15.8254 37.1115 17.8883C39.1744 19.9512 40.3333 22.7491 40.3333 25.6665V38.4998H33V25.6665C33 24.694 32.6137 23.7614 31.9261 23.0738C31.2384 22.3861 30.3058 21.9998 29.3333 21.9998C28.3609 21.9998 27.4282 22.3861 26.7406 23.0738C26.053 23.7614 25.6667 24.694 25.6667 25.6665V38.4998H18.3333V25.6665C18.3333 22.7491 19.4923 19.9512 21.5552 17.8883C23.6181 15.8254 26.416 14.6665 29.3333 14.6665V14.6665Z" stroke="#333652" stroke-width="4" stroke-linecap="round" stroke-linejoin="round"/>
<path d="M11 16.5H3.66666V38.5H11V16.5Z" stroke="#333652" stroke-width="4" stroke-linecap="round" stroke-linejoin="round"/>
<path d="M7.33333 10.9998C9.35837 10.9998 11 9.35821 11 7.33317C11 5.30813 9.35837 3.6665 7.33333 3.6665C5.30829 3.6665 3.66666 5.30813 3.66666 7.33317C3.66666 9.35821 5.30829 10.9998 7.33333 10.9998Z" stroke="#333652" stroke-width="4" stroke-linecap="round" stroke-linejoin="round"/>
</svg>
