<svg width="229" height="150" fill="none" xmlns="http://www.w3.org/2000/svg"><path d="M172.115 150c-9.724 0-18.354-2.536-25.89-7.609-7.537-5.072-13.493-11.956-17.868-20.652-4.376-8.696-6.564-18.357-6.564-28.985 0-17.392 5.713-34.42 17.139-51.087C150.6 24.758 167.01 10.87 188.159 0L229 21.74c-13.857 6.762-25.647 14.613-35.371 23.55-9.481 8.937-15.923 19.444-19.326 31.522 11.425.966 20.663 4.468 27.713 10.507 7.293 5.797 10.939 13.889 10.939 24.275 0 10.387-3.768 19.445-11.304 27.174-7.293 7.488-17.138 11.232-29.536 11.232zm-121.793 0c-9.724 0-18.354-2.536-25.89-7.609-7.537-5.072-13.492-11.956-17.868-20.652C2.188 113.043 0 103.382 0 92.754c0-17.392 5.713-34.42 17.139-51.087C28.806 24.758 45.216 10.87 66.365 0l40.841 21.74C93.35 28.501 81.56 36.352 71.836 45.29c-9.48 8.937-15.923 19.444-19.326 31.522 11.425.966 20.663 4.468 27.713 10.507 7.293 5.797 10.94 13.889 10.94 24.275 0 10.387-3.769 19.445-11.305 27.174C72.565 146.256 62.72 150 50.322 150z" fill="#FCE380"/></svg>