<svg width="97" height="64" fill="none" xmlns="http://www.w3.org/2000/svg"><path d="M24.096 0c4.118 0 7.774 1.082 10.966 3.246 3.192 2.165 5.715 5.102 7.569 8.812 1.853 3.71 2.78 7.832 2.78 12.367 0 7.42-2.42 14.686-7.26 21.797C33.21 53.436 26.258 59.362 17.3 64L0 54.725c5.87-2.886 10.864-6.236 14.982-10.049 4.016-3.813 6.745-8.296 8.187-13.449-4.84-.412-8.753-1.907-11.74-4.483-3.088-2.474-4.633-5.926-4.633-10.357 0-4.432 1.596-8.297 4.788-11.595C14.674 1.597 18.844 0 24.096 0zm51.589 0c4.119 0 7.774 1.082 10.966 3.246 3.192 2.165 5.715 5.102 7.569 8.812C96.073 15.768 97 19.89 97 24.425c0 7.42-2.42 14.686-7.26 21.797C84.798 53.436 77.847 59.362 68.888 64L51.59 54.725c5.87-2.886 10.864-6.236 14.983-10.049 4.016-3.813 6.744-8.296 8.186-13.449-4.84-.412-8.753-1.907-11.739-4.483-3.09-2.474-4.634-5.926-4.634-10.357 0-4.432 1.596-8.297 4.789-11.595C66.263 1.597 70.434 0 75.684 0z" fill="#FCE380"/></svg>