<svg width="44" height="44" viewBox="0 0 44 44" fill="none" xmlns="http://www.w3.org/2000/svg">
   <g clip-path="url(#clip0)">
      <path
         d="M42.1667 5.49988C40.411 6.73826 38.4672 7.68541 36.41 8.30488C35.3058 7.03532 33.8384 6.13548 32.2062 5.72708C30.574 5.31867 28.8557 5.42141 27.2838 6.02138C25.7119 6.62135 24.3621 7.68962 23.4171 9.08169C22.4721 10.4738 21.9774 12.1225 22 13.8049V15.6382C18.7782 15.7218 15.5857 15.0072 12.7068 13.5582C9.82802 12.1092 7.35224 9.97071 5.49999 7.33321C5.49999 7.33321 -1.83334 23.8332 14.6667 31.1665C10.891 33.7295 6.39312 35.0146 1.83333 34.8332C18.3333 43.9999 38.5 34.8332 38.5 13.7499C38.4983 13.2392 38.4492 12.7298 38.3533 12.2282C40.2244 10.383 41.5448 8.05319 42.1667 5.49988V5.49988Z"
         stroke="#333652" stroke-width="4" stroke-linecap="round" stroke-linejoin="round" />
   </g>
   <defs>
      <clipPath id="clip0">
         <rect width="44" height="44" fill="white" />
      </clipPath>
   </defs>
</svg>