<svg width="56" height="26" fill="none" xmlns="http://www.w3.org/2000/svg"><path d="M10.3 0c3.021 0 5.417.668 7.187 2.003 1.781 1.323 2.672 3.267 2.672 5.83 0 2.045-.4 3.628-1.203 4.75-.79 1.111-1.853 1.997-3.186 2.659l5.239 10.28v.283h-7.115l-4.319-8.773H6.637v8.773H0V0h10.3zm0 5.37H6.638v6.292h3.593c2.195 0 3.292-1.046 3.292-3.137 0-.993-.271-1.767-.814-2.322-.543-.555-1.345-.833-2.407-.833zM29.062 25.805h-7.133L31.381 0h6.23l9.504 25.805h-7.133l-1.345-4.324H30.39l-1.327 4.324zm2.991-9.695h4.938l-2.478-7.993-2.46 7.993zM49.027 22.703c0-.933.324-1.713.973-2.339.649-.626 1.487-.94 2.513-.94 1.039 0 1.876.314 2.514.94.648.626.973 1.406.973 2.34 0 .933-.325 1.719-.973 2.357-.638.626-1.475.939-2.514.939-1.026 0-1.864-.313-2.513-.94-.649-.637-.973-1.423-.973-2.357z" fill="#000"/></svg>