<?xml version="1.0" standalone="no"?>
<!DOCTYPE svg PUBLIC "-//W3C//DTD SVG 20010904//EN"
 "http://www.w3.org/TR/2001/REC-SVG-20010904/DTD/svg10.dtd">
<svg version="1.0" xmlns="http://www.w3.org/2000/svg"
 width="1792.000000pt" height="1792.000000pt" viewBox="0 0 1792.000000 1792.000000"
 preserveAspectRatio="xMidYMid meet">
<metadata>
Created by potrace 1.14, written by Peter Selinger 2001-2017
</metadata>
<g transform="translate(0.000000,1792.000000) scale(0.100000,-0.100000)"
fill="#000000" stroke="none">
<path d="M2 8993 l3 -4128 1053 -1 c756 -1 1055 2 1060 10 3 6 7 637 7 1401
l0 1390 470 2 470 3 54 -110 c29 -60 53 -112 51 -116 -1 -4 2 -10 7 -13 8 -5
67 -121 92 -181 6 -14 15 -32 21 -40 5 -8 91 -181 191 -385 100 -203 236 -480
302 -615 67 -135 121 -248 121 -252 1 -4 7 -13 14 -20 6 -6 12 -16 12 -20 0
-13 84 -183 93 -186 4 -2 7 -9 7 -15 0 -9 193 -406 359 -737 l57 -115 1133 -1
c815 -1 1134 2 1139 10 20 32 1 83 -116 316 -68 135 -128 251 -134 258 -6 6
-7 12 -3 12 4 0 3 6 -3 13 -5 6 -60 111 -122 232 -62 121 -116 224 -121 229
-5 6 -9 18 -9 28 0 10 -4 18 -8 18 -4 0 -14 17 -21 38 -8 20 -17 39 -20 42 -3
3 -39 70 -80 150 -88 175 -391 770 -771 1515 -242 476 -262 516 -259 519 2 2
31 17 64 34 82 41 279 162 283 173 2 5 9 9 15 9 7 0 24 10 39 23 15 12 49 38
75 57 27 19 53 40 60 45 6 6 35 30 64 55 150 127 338 337 446 500 47 70 127
224 165 315 20 49 76 217 82 247 3 13 12 49 20 81 9 31 18 72 20 90 3 17 9 57
15 87 13 72 23 138 26 175 2 17 6 66 11 110 10 99 11 575 2 670 -8 75 -13 116
-29 210 -6 33 -12 73 -15 88 -2 16 -6 32 -9 37 -3 4 -7 25 -11 46 -3 22 -12
54 -19 72 -8 17 -12 32 -10 32 10 0 -73 219 -125 327 -55 115 -183 321 -229
370 -12 12 -21 24 -21 27 0 3 -12 18 -27 34 -16 16 -48 51 -73 78 -62 66 -224
214 -236 214 -7 0 -96 71 -106 85 -5 7 -8 7 -8 0 0 -6 -3 -6 -8 1 -16 23 -267
174 -289 174 -7 0 -13 4 -13 9 0 9 -40 27 -49 22 -2 -2 -7 1 -10 6 -10 15
-321 147 -321 136 0 -3 -6 -1 -12 4 -7 6 -40 18 -73 28 -33 9 -71 21 -85 26
-14 5 -51 15 -82 24 -32 8 -84 22 -115 31 -32 8 -71 17 -88 19 -16 3 -74 13
-128 23 -90 18 -103 20 -109 23 -2 0 -16 2 -33 3 -34 4 -128 15 -165 21 -14 2
-56 7 -95 11 -38 3 -95 8 -125 11 -30 4 -880 8 -1888 10 l-1832 4 2 -4128z
m2263 2407 c111 5 495 4 495 -2 0 -4 6 -5 13 -2 24 9 98 10 103 2 3 -5 10 -5
16 -2 13 8 374 8 387 -1 6 -3 11 -2 11 2 0 5 17 7 38 6 20 -2 69 -5 107 -7 39
-3 81 -8 95 -11 14 -3 39 -7 55 -10 17 -2 37 -6 45 -8 69 -16 87 -21 114 -32
17 -7 36 -14 41 -15 12 -2 148 -72 155 -80 3 -3 23 -19 45 -35 52 -38 114
-101 145 -145 13 -19 27 -37 30 -40 6 -6 24 -37 55 -95 38 -71 80 -202 90
-280 2 -16 4 -30 5 -30 12 0 17 -322 7 -409 -27 -226 -101 -404 -226 -539 -74
-80 -263 -197 -343 -212 -11 -3 -44 -11 -72 -19 -28 -8 -64 -17 -81 -20 -16
-3 -45 -8 -64 -11 -78 -13 -175 -15 -756 -16 -335 0 -619 0 -630 0 -21 1 -21
3 -20 961 0 528 -4 960 -8 960 -5 0 -5 6 0 13 4 6 8 26 8 42 0 24 4 30 22 30
12 0 25 3 28 6 3 4 18 4 33 2 15 -2 41 -4 57 -3z"/>
<path d="M10029 13088 c-6 -18 -13 -36 -14 -40 -1 -5 -3 -9 -5 -10 -1 -2 -3
-10 -5 -18 -2 -8 -18 -53 -35 -100 -18 -47 -41 -110 -52 -140 -11 -30 -24 -64
-29 -75 -5 -11 -20 -54 -34 -95 -15 -41 -30 -84 -35 -95 -5 -11 -20 -54 -35
-95 -15 -41 -30 -84 -35 -95 -5 -11 -12 -31 -15 -45 -4 -14 -13 -38 -20 -55
-22 -51 -47 -119 -50 -137 -2 -10 -10 -32 -18 -50 -8 -18 -20 -46 -25 -63 -14
-41 -71 -196 -79 -215 -3 -8 -7 -19 -9 -25 -3 -15 -63 -177 -73 -200 -5 -11
-19 -49 -31 -85 -12 -36 -28 -78 -35 -95 -11 -25 -36 -97 -40 -115 -1 -3 -7
-18 -14 -35 -6 -16 -16 -41 -21 -55 -5 -14 -15 -38 -21 -55 -7 -16 -13 -32
-14 -35 0 -3 -12 -36 -25 -75 -13 -38 -23 -73 -22 -77 1 -5 -2 -8 -6 -8 -4 0
-14 -21 -21 -47 -8 -27 -24 -72 -37 -101 -13 -29 -23 -53 -23 -55 1 -6 -39
-125 -51 -152 -25 -56 -38 -95 -33 -95 3 0 1 -6 -4 -12 -8 -10 -31 -68 -38
-98 -1 -3 -5 -12 -8 -20 -4 -8 -20 -53 -37 -100 -17 -47 -33 -92 -37 -100 -3
-8 -7 -17 -8 -20 -1 -3 -4 -12 -8 -20 -3 -8 -17 -49 -32 -90 -14 -41 -29 -84
-34 -95 -5 -11 -26 -67 -47 -125 -20 -58 -42 -116 -47 -130 -6 -14 -11 -27
-11 -30 -3 -12 -49 -138 -62 -167 -8 -17 -14 -34 -14 -37 0 -4 -18 -57 -41
-119 -41 -112 -47 -131 -50 -145 0 -4 -6 -16 -12 -27 -6 -11 -12 -24 -13 -30
-3 -11 -50 -141 -61 -165 -3 -8 -7 -19 -9 -25 -4 -15 -63 -178 -71 -195 -3 -8
-7 -17 -8 -20 -1 -3 -7 -18 -13 -33 -7 -15 -15 -40 -18 -55 -4 -15 -15 -45
-25 -67 -9 -22 -33 -85 -53 -140 -29 -85 -47 -134 -92 -255 -3 -8 -5 -17 -6
-20 0 -3 -6 -21 -15 -40 -8 -19 -41 -109 -74 -200 -33 -91 -62 -172 -66 -180
-3 -8 -7 -19 -8 -25 -2 -5 -13 -37 -26 -70 -13 -33 -24 -62 -24 -65 -1 -3 -5
-12 -8 -20 -6 -14 -26 -67 -62 -170 -8 -25 -20 -54 -24 -65 -5 -11 -42 -110
-82 -220 -39 -110 -83 -229 -96 -265 -14 -36 -26 -69 -27 -75 -2 -5 -6 -17 -9
-25 -10 -21 -75 -204 -99 -275 -11 -33 -25 -64 -29 -69 -5 -6 -9 -16 -9 -22 0
-7 -5 -25 -12 -41 -6 -15 -12 -31 -12 -35 -1 -3 -4 -10 -8 -14 -5 -4 -8 -14
-8 -23 0 -9 -6 -28 -14 -42 -7 -14 -16 -39 -20 -55 -4 -16 -14 -42 -21 -59 -7
-16 -34 -88 -60 -160 -25 -71 -57 -158 -71 -193 -13 -34 -24 -69 -24 -77 0 -8
-5 -15 -10 -15 -6 0 -9 -3 -8 -7 1 -5 -6 -33 -17 -63 -11 -30 -20 -57 -20 -60
-3 -10 -17 -46 -26 -65 -6 -12 -11 -27 -12 -35 -2 -8 -5 -19 -8 -25 -4 -5 -12
-28 -19 -50 -7 -22 -18 -53 -25 -70 -22 -51 -37 -94 -36 -100 0 -2 -10 -30
-24 -60 -13 -31 -24 -56 -24 -58 0 -4 -9 -32 -30 -90 -11 -33 -21 -60 -21 -61
0 -2 513 -3 1139 -3 l1140 0 35 111 c19 61 49 158 66 216 30 98 68 222 86 280
5 14 9 27 9 30 1 3 4 12 7 20 4 8 18 56 33 105 14 50 42 140 60 200 19 61 55
177 80 259 25 82 48 152 50 156 2 3 596 6 1321 6 l1316 -1 23 -62 c12 -35 21
-63 19 -63 -1 0 6 -26 17 -57 11 -32 22 -65 24 -73 2 -8 4 -15 5 -15 1 0 3 -8
5 -17 2 -10 19 -69 39 -130 20 -62 36 -116 36 -120 1 -4 8 -27 16 -50 9 -24
27 -81 40 -128 14 -47 27 -92 31 -100 3 -8 7 -20 9 -27 3 -15 33 -113 41 -133
4 -8 7 -17 8 -20 18 -58 29 -98 31 -110 3 -14 32 -106 73 -225 l17 -50 1141
-1 1142 -1 -21 51 c-11 28 -30 80 -43 116 -12 36 -44 121 -69 190 -26 69 -61
163 -78 210 -36 102 -42 118 -56 150 -6 14 -20 52 -32 85 -11 33 -24 67 -27
75 -3 8 -7 17 -7 20 -1 5 -30 86 -43 120 -4 8 -5 18 -5 23 1 4 -2 7 -6 7 -5 0
-9 6 -9 13 -1 11 -44 136 -63 182 -15 36 -35 90 -35 95 0 3 -6 15 -13 28 -7
12 -10 22 -8 22 3 0 -4 21 -15 48 -12 26 -22 54 -24 62 -2 8 -14 44 -28 80
-25 64 -99 262 -159 430 -30 82 -38 105 -57 153 -5 12 -14 38 -21 57 -7 19
-19 49 -26 67 -8 17 -14 35 -14 39 0 5 -9 31 -19 59 -68 175 -111 293 -111
306 0 8 -4 19 -9 25 -5 5 -23 50 -41 99 -42 119 -70 196 -81 220 -5 11 -24 65
-44 120 -19 55 -38 107 -42 115 -3 8 -7 17 -7 20 -4 16 -59 168 -66 181 -5 9
-21 52 -35 95 -15 44 -33 93 -40 109 -28 66 -55 138 -55 146 0 4 -5 20 -12 36
-6 15 -12 30 -13 33 -1 3 -4 12 -8 20 -26 68 -99 267 -101 275 -2 13 -55 153
-67 180 -5 11 -20 54 -34 95 -15 41 -30 84 -35 95 -4 11 -17 46 -29 78 -69
188 -118 321 -126 342 -4 11 -10 29 -12 39 -2 11 -8 25 -13 31 -5 6 -11 20
-13 31 -2 10 -11 37 -21 58 -9 22 -19 51 -23 65 -3 14 -14 42 -23 61 -10 19
-18 38 -18 43 -1 9 -1 10 -113 312 -45 121 -82 226 -82 233 0 6 -4 12 -9 12
-4 0 -7 3 -7 8 1 4 0 10 -1 15 -1 4 -3 10 -5 15 -1 4 -5 16 -9 27 -4 11 -17
45 -28 75 -11 30 -24 64 -29 75 -12 28 -39 107 -44 129 -3 11 -9 24 -15 30 -5
5 -10 18 -10 27 0 9 -7 29 -14 45 -8 15 -13 31 -10 36 3 4 1 8 -3 8 -5 0 -15
21 -22 48 -8 26 -20 61 -27 77 -8 17 -30 75 -49 130 -45 123 -74 204 -85 230
-5 11 -19 49 -31 85 -12 36 -25 70 -29 75 -3 6 -17 44 -30 85 -14 41 -27 77
-30 80 -3 3 -6 10 -7 15 -2 12 -149 415 -208 570 -15 39 -44 117 -64 175 -21
58 -43 116 -48 130 -15 35 -60 160 -68 188 l-6 22 -999 0 -998 0 -13 -32z
m1026 -2595 c2 -10 4 -18 5 -18 1 0 3 -8 5 -17 2 -9 22 -76 45 -148 23 -72 43
-136 44 -143 2 -7 6 -19 9 -27 3 -8 33 -107 67 -220 34 -113 66 -214 71 -225
16 -39 57 -185 52 -185 -3 0 -1 -6 5 -12 5 -7 17 -40 26 -73 9 -33 20 -67 23
-75 3 -8 7 -18 8 -22 2 -5 3 -9 5 -10 1 -2 3 -11 5 -21 3 -16 41 -138 85 -277
10 -30 32 -102 50 -160 17 -58 35 -116 40 -130 24 -68 64 -206 62 -212 -1 -5
2 -8 8 -8 5 0 7 -7 4 -15 -4 -8 -2 -21 4 -28 8 -10 14 -28 27 -77 6 -24 51
-166 66 -208 10 -28 19 -55 19 -60 1 -4 10 -36 20 -71 11 -35 20 -68 20 -75 0
-8 -199 -11 -782 -11 -865 0 -798 -5 -770 64 7 18 11 36 8 39 -3 3 -2 10 3 16
8 11 33 79 37 102 1 7 19 65 39 130 21 65 38 123 40 129 1 5 5 17 8 25 3 8 12
35 18 60 15 53 14 51 22 70 3 8 20 62 37 120 18 58 35 114 38 125 3 11 7 22 7
25 1 3 4 12 7 20 12 36 69 220 73 237 2 10 18 63 35 118 18 55 40 127 50 160
71 233 140 454 149 478 6 15 9 27 6 27 -2 0 4 20 15 45 11 25 17 45 15 45 -2
0 9 37 24 83 15 45 29 85 29 90 1 4 12 40 24 80 12 39 23 74 23 77 6 30 59
189 62 186 3 -2 6 -12 8 -23z"/>
<path d="M16737 6904 c-1 -1 -33 -4 -72 -8 -210 -18 -426 -98 -569 -209 -76
-60 -202 -195 -241 -258 -21 -35 -42 -65 -47 -67 -4 -2 -8 -12 -8 -22 0 -10
-4 -21 -9 -24 -4 -3 -18 -34 -31 -68 -12 -35 -25 -70 -28 -78 -3 -8 -6 -19 -7
-25 -1 -5 -3 -13 -5 -17 -4 -13 -6 -21 -14 -78 -5 -30 -10 -64 -12 -75 -5 -25
-5 -187 0 -240 10 -108 57 -276 96 -345 5 -8 21 -39 36 -67 15 -29 35 -60 46
-69 10 -10 18 -21 18 -25 0 -9 40 -56 101 -117 158 -162 373 -265 624 -300 28
-3 122 -6 210 -6 127 0 181 5 265 23 58 13 110 27 116 32 7 5 16 9 20 8 17 -4
89 28 185 83 132 75 253 190 341 323 38 58 98 174 98 190 0 2 4 14 9 27 5 13
9 26 10 30 1 4 7 22 12 40 54 177 49 438 -11 628 -24 75 -99 230 -112 230 -4
0 -8 7 -8 15 0 8 -4 15 -9 15 -5 0 -13 9 -16 20 -10 30 -174 192 -241 238 -62
41 -192 112 -207 112 -5 0 -23 6 -40 14 -28 12 -126 39 -191 52 -12 2 -48 6
-81 9 -33 2 -60 5 -60 5 0 2 -166 5 -168 4z"/>
</g>
</svg>
