<svg width="510" height="591" fill="none" xmlns="http://www.w3.org/2000/svg"><path d="M47.904 520.737s-19.871-12.793-28.388 0h28.388zM434.329 511.33s3.549-15.803 28.388-10.535c24.839 5.267 28.387 10.535 28.387 10.535h-56.775z" fill="#3F3D56"/><path d="M377.554 520.737c-17.257-2.865-33.851-5.302-49.779-7.31l6.134-13.009c-2.13-.752-11.356 6.773-11.356 6.773l7.807-37.626c-10.645 1.505-15.613 39.884-15.613 39.884l-12.065-12.793 5.939 14.484c-48.742-5.431-90.802-7.126-126.158-6.737l5.25-11.134c-2.129-.752-11.355 6.773-11.355 6.773l7.806-37.627c-10.645 1.506-15.613 39.885-15.613 39.885l-12.065-12.793 6.291 15.341a668.631 668.631 0 00-72.405 6.182c5.239-17.305 23.533-33.94 23.533-33.94-14.066 4.64-21.384 12.2-25.172 19.208-.766-35.553 4.392-70.969 15.236-104.621 0 0-28.387 67.728-24.129 112.88l.54 8.021c-24.696 4.085-37.089 8.159-37.089 8.159h334.263zM192.326 554.978s130.582-20.32 211.487 0H192.326zM0 582.82s130.583-20.317 211.487 0H0zM242.004 590.291s77.342-20.799 125.26 0h-125.26zM458.025 506.784l-1.261-.691c16.381-33.581 7.621-77.191-2.611-107.862-6.948-20.616-15.81-40.448-26.456-59.206l1.2-.804c10.701 18.853 19.609 38.787 26.593 59.507 10.327 30.952 19.148 74.997 2.535 109.056zM470.174 338.491l-9.208 53.434 1.396.27 9.208-53.433-1.396-.271z" fill="#3F3D56"/><path d="M408.946 384.015l-1.04 1.026 47.549 54.182 1.04-1.026-47.549-54.182zM494.427 443.534l-24.118 35.378 1.15.881 24.118-35.377-1.15-.882z" fill="#3F3D56"/><path d="M474.427 324.326c3.919 0 7.097-3.37 7.097-7.526s-3.178-7.525-7.097-7.525c-3.92 0-7.097 3.369-7.097 7.525 0 4.156 3.177 7.526 7.097 7.526z" fill="#9BB5CC"/><path d="M397.071 382.27c3.919 0 7.097-3.369 7.097-7.525 0-4.156-3.178-7.525-7.097-7.525-3.92 0-7.097 3.369-7.097 7.525 0 4.156 3.177 7.525 7.097 7.525zM428.297 389.796c3.92 0 7.097-3.369 7.097-7.525 0-4.157-3.177-7.526-7.097-7.526-3.919 0-7.097 3.369-7.097 7.526 0 4.156 3.178 7.525 7.097 7.525z" fill="#3F3D56"/><path d="M414.103 419.145c3.92 0 7.097-3.37 7.097-7.526s-3.177-7.525-7.097-7.525c-3.919 0-7.097 3.369-7.097 7.525 0 4.156 3.178 7.526 7.097 7.526z" fill="#9BB5CC"/><path d="M502.814 437.958c3.92 0 7.097-3.37 7.097-7.526s-3.177-7.525-7.097-7.525c-3.919 0-7.096 3.369-7.096 7.525 0 4.156 3.177 7.526 7.096 7.526zM479.395 446.236c3.919 0 7.097-3.369 7.097-7.526 0-4.156-3.178-7.525-7.097-7.525-3.92 0-7.097 3.369-7.097 7.525 0 4.157 3.177 7.526 7.097 7.526zM495.718 470.317c3.919 0 7.096-3.369 7.096-7.525 0-4.156-3.177-7.525-7.096-7.525-3.92 0-7.097 3.369-7.097 7.525 0 4.156 3.177 7.525 7.097 7.525zM421.2 333.355c3.92 0 7.097-3.369 7.097-7.525 0-4.156-3.177-7.525-7.097-7.525-3.919 0-7.097 3.369-7.097 7.525 0 4.156 3.178 7.525 7.097 7.525z" fill="#3F3D56"/><path d="M390.09 258.21c0 113.641-63.711 153.32-142.304 153.32-78.592 0-142.303-39.679-142.303-153.32C105.483 144.569 247.786 0 247.786 0S390.09 144.569 390.09 258.21z" fill="#F2F2F2"/><path d="M242.602 394.147l1.457-95.107 60.654-117.661-60.425 102.741.656-42.764 41.802-85.126-41.629 73.81 1.178-76.914 44.763-67.772-44.578 55.677L247.217 0l-4.627 186.7.38-7.702-45.51-73.866 44.78 88.651-4.241 85.899-.125-2.28-52.466-77.733 52.307 85.788-.531 10.742-.094.162.043.882-10.759 217.933h14.374l1.725-112.567 52.178-85.578-52.049 77.116z" fill="#3F3D56"/><path d="M132.842 421.883l6.485 21.283s-5.867 19.973-3.088 42.238 1.235 22.92 1.235 22.92-27.767-1.696-24.988 7.145 29.929 3.66 29.929 3.66 5.214-1.489 7.684-17.206c2.47-15.716 8.681-45.988 8.681-45.988l-5.84-28.577-20.098-5.475z" fill="#FFB8B8"/><path d="M135.004 378.334s-11.734 4.584-11.734 17.027c0 12.442 4.323 29.468 7.102 30.45 2.779.983 21.306 14.407 24.703 4.912 3.396-9.496-20.071-52.389-20.071-52.389z" fill="#9BB5CC"/><path d="M233.198 525.678l24.702-.983 18.837-2.946-5.558 19.645-45.701 1.31 7.72-17.026z" fill="#FFB8B8"/><path d="M268.708 528.297s-.309-7.204-3.088-6.876c-2.779.327-.926-2.62 1.544-3.275 2.471-.654 9.573-3.929 9.573-3.929l28.099 1.965s18.219 17.026 10.808 26.194c-7.411 9.168-26.556.982-26.556.982l-20.689.328s-6.793-11.788.309-15.389z" fill="#2F2E41"/><path d="M279.825 503.085l8.954 44.53 18.528-3.929-10.499-55.663-11.117-6.221-5.866 21.283z" fill="#FFB8B8"/><path d="M173.293 497.518s-51.876 24.885-29.952 50.097c0 0 0 11.788 23.159 9.496s67.933-6.549 70.094-5.239c2.162 1.309 8.955-25.867 3.088-27.177a2308.367 2308.367 0 01-12.969-2.947s6.176-.982 6.176-6.548c0 0 17.601-1.31 22.85-13.097 5.25-11.788 10.19-20.629 10.19-20.629l12.043 32.743s13.895-27.176 24.394-15.061c0 0-11.734-78.256-20.689-85.459-8.955-7.204-15.13-9.496-23.468-2.947-8.337 6.548-16.056 23.247-16.056 23.247l-68.86 63.521zM297.117 534.19a70.901 70.901 0 00-6.176 5.566c-2.47 2.62-5.867 1.31-6.176 0-.309-1.309-5.867.983-6.484 10.478-.618 9.496-4.323 18.009 5.558 20.956 9.881 2.947 9.572 11.46 9.572 11.46 7.819 3.977 16.792 4.565 25.012 1.637 13.895-4.911 8.955-10.15 8.955-10.15l-18.527-32.416s-4.941-9.823-11.734-7.531z" fill="#2F2E41"/><path d="M245.858 371.786s29.644 10.805 32.731 13.097c3.088 2.292 16.984 13.097 10.19 18.664-6.793 5.566-12.351 9.168-25.629 4.911-13.278-4.256-28.099-17.354-28.099-17.354l10.807-19.318z" fill="#FFB8B8"/><path d="M216.215 357.379s11.733-2.292 20.071 2.619c8.337 4.912 15.439 14.734 15.439 14.734s-7.72 17.354-13.278 19.973c-5.558 2.62-15.748-10.477-15.748-10.477l-6.484-26.849z" fill="#9BB5CC"/><path d="M162.177 347.884s.309 12.769-.926 14.079c-1.236 1.31 14.821 39.946 32.422 22.919 17.601-17.026 4.014-23.901 4.014-23.901s-6.484-12.77-6.175-14.08c.308-1.309-28.717 0-28.717 0l-.618.983z" fill="#FFB8B8"/><path opacity=".1" d="M162.177 347.884s.309 12.769-.926 14.079c-1.236 1.31 14.821 39.946 32.422 22.919 17.601-17.026 4.014-23.901 4.014-23.901s-6.484-12.77-6.175-14.08c.308-1.309-28.717 0-28.717 0l-.618.983z" fill="#000"/><path d="M167.118 372.441s11.733 8.513 16.674 6.548c4.941-1.964 11.116-10.477 11.734-11.132.617-.655 32.114 66.468 32.114 66.468s-4.632 24.557-16.984 31.76c-12.351 7.204-12.197 12.934-13.741 17.845-1.543 4.912-21.46-15.553-21.46-15.553l-12.661-56.972v-34.708l4.324-4.256z" fill="#9BB5CC"/><path d="M162.022 357.215s-3.859-.818-7.874 2.783c-4.014 3.602-22.85 17.027-21.923 18.336.926 1.31 9.263 19.974 11.116 27.504 1.853 7.531 4.632 8.514 4.632 8.514s6.484 4.911 5.558 8.513c-.926 3.601-4.941 52.716.617 63.521 5.559 10.805 4.632 20.3 3.088 22.92-1.544 2.619 14.822-7.531 14.822-7.531s24.394-20.955 26.247-27.177a77.062 77.062 0 002.47-13.097s-15.748-66.14-20.688-69.742c-4.941-3.602-18.065-34.544-18.065-34.544zM195.946 357.474s7.608-5.006 9.152-3.696c1.544 1.309 16.057 1.309 16.366 2.619.309 1.31.926 32.743 11.425 40.929 10.499 8.185 3.706 24.557 3.706 24.557l7.719 13.097s-41.994 42.889-39.216 28.159c.155-.819 0-.983 0-.983s-16.365-74.326-14.204-78.255c2.162-3.929 6.089-21.747 5.052-26.427z" fill="#575A89"/><path d="M260.68 387.502l-41.995 15.39s-41.686 10.477-35.202 22.592c6.485 12.115 33.967-8.513 33.967-8.513l55.923-6.644s22.2-19.878-12.693-22.825zM178.851 359.999c12.62 0 22.851-10.848 22.851-24.23 0-13.381-10.231-24.229-22.851-24.229-12.619 0-22.85 10.848-22.85 24.229 0 13.382 10.231 24.23 22.85 24.23z" fill="#FFB8B8"/><path d="M160.654 311.689l-4.227-1.63s8.838-9.372 21.135-8.557l-3.459-3.667s8.454-3.259 16.139 5.297c4.04 4.498 8.714 9.785 11.628 15.741h4.527l-1.89 4.007 6.613 4.006-6.787-.72a21.39 21.39 0 01-.642 10.377l-1.537 4.482s-6.148-13.038-6.148-14.668v4.074s-4.227-3.667-4.227-6.111l-2.306 2.852-1.152-4.482-14.218 4.482 2.306-3.667-8.838 1.222 3.458-4.482s-9.99 5.297-10.375 9.779c-.384 4.482-5.379 10.186-5.379 10.186l-2.306-4.074s-3.458-18.336 7.685-24.447z" fill="#2F2E41"/></svg>