<svg xmlns="http://www.w3.org/2000/svg" width="101" height="47" viewBox="0 0 101 47">
  <g fill="none" fill-rule="evenodd">
    <path fill="#1E53C9" fill-rule="nonzero"
      d="M2.278 14.28c.22 1.227 1.273 1.963 2.371 1.767 2.59-.59 2.151 3.387 2.195 7.608.044 2.7-.044 5.35.044 8.05.132 3.682.395 7.363.483 11.045.044 1.57.351 2.994 1.712 3.485 1.318.49 2.81.442 4.698.687.395-4.172.747-8.05 1.142-12.124 5.268 2.454 9.57 6.872 15.103 8.197 1.273-3.092 1.01-4.27-1.23-5.792-1.756-1.129-3.6-2.16-5.4-3.289-.702-.49-1.36-1.129-2.283-1.914 1.625-.933 2.81-1.964 4.083-2.21 4.303-.784 7.025-3.926 9.528-7.46 2.327-3.29 2.414-7.609.658-11.34-1.273-2.601-3.512-3.78-5.4-5.546-3.6-3.338-7.99-3.878-12.425-4.369-1.185-.147-2.37-.196-3.556-.245-.703-.05-1.45-.148-2.152-.099-1.405.197-2.853.246-4.214.639-2.503.687-5.269.54-7.289 2.307.659 3.632 1.274 7.068 1.932 10.602zm11.328.54c2.458.147 6.541-.835 8.868.932 2.24 5.989-5.663 10.308-9.176 11.192.132-2.209.22-10.456.308-12.125z" />
    <path fill="#000"
      d="M49.55 20.791c-3.82-1.536-8.035.088-10.538 3.074-1.8 2.151-3.38 4.434-5.093 6.673-2.239 2.898-2.37 6.98-.307 9.615 1.054 1.317 2.195 1.669 3.512.659 1.449-1.098 2.81-2.415 4.04-3.776 1.273-1.361 2.326-2.942 3.556-4.478.263 1.536.395 2.941.834 4.302.614 2.02 1.8 3.732 3.951 4.215 2.459.527 3.556-.263 3.556-2.415 0-2.941-.35-5.927-.526-8.868-.088-1.23-.264-2.415-.176-3.6.132-1.888-1.23-4.786-2.81-5.4zM36.026 36.948c-1.01-1.756-.659-3.38.614-4.83 2.459-2.721 4.961-5.443 7.552-8.297.746 3.556-3.996 10.888-8.166 13.127zM88.668 25.006c-.132-1.888-.702-3.249-1.756-4.61-.22-.263-.351-.57-.395-.658-.878-.483-1.58-.835-2.283-1.23-1.273-.79-4.127-.57-4.917.571-1.537.746-3.557 3.073-6.893 10.493-.176 0-.308-.044-.483-.088-.132-2.063-.264-4.17-.44-6.497-.35-.352-.834-.922-1.404-1.405-2.635-2.24-7.42-1.318-8.87 1.668-.614 1.273-1.404 2.503-2.326 4.17-.615-2.194.527-4.96-2.898-5.048-.175.483-.395.79-.439 1.098-.132 1.624-.263 3.248-.263 4.873-.088 3.512-.132 7.025-.088 10.537 0 1.844.878 2.722 2.722 2.898.79.044 1.624.087 2.459 0 1.36-.132 2.546-.747 3.03-2.108.877-2.327 1.58-4.785 2.414-7.156.307-.878.79-1.669 1.185-2.59.395.307.615.395.703.526.175.22.351.483.395.747.483 2.502 2.59 3.205 4.566 3.995 1.098.439 1.844-.088 2.24-1.142.921-2.502 1.755-5.005 2.765-7.463.44-.966.703-2.24 2.107-2.59.088.307.176.526.132.702-.044 3.117-.307 6.278.527 9.351.483 1.757.834 3.645 1.8 5.093 2.064 2.986 4.215 4.303 7.2 1.142 0-1.186.264-2.459-.043-3.512-1.142-3.864-.483-7.86-.747-11.767zM98.152 41.12c1.492-.352 1.844-1.67 2.063-2.767.263-1.449.044-2.985.088-4.478 0-1.888.044-3.82.044-5.708-.044-1.141.131-2.37-.308-3.38-.834-1.976-2.37-3.469-4.653-3.864-.571-.088-1.186-.263-2.152-.483-.307.79-.878 1.58-.966 2.459-.22 2.897-.131 5.883-.439 8.78-.307 2.986.132 5.664 2.064 8.035.878 1.142 2.81 1.8 4.259 1.405z" />
    <path fill="#1E53C9"
      d="M96.385 10.937c1.093 0 2.59 2.86 2.59 4.878 0 2.02-1.497 2.44-2.59 2.44-1.094 0-2.591-2.25-2.591-4.27 0-2.018 1.497-3.048 2.59-3.048z" />
  </g>
</svg>