<?xml version="1.0" standalone="no"?>
<!DOCTYPE svg PUBLIC "-//W3C//DTD SVG 20010904//EN"
 "http://www.w3.org/TR/2001/REC-SVG-20010904/DTD/svg10.dtd">
<svg version="1.0" xmlns="http://www.w3.org/2000/svg"
 width="1616.000000pt" height="1616.000000pt" viewBox="0 0 1616.000000 1616.000000"
 preserveAspectRatio="xMidYMid meet">
<metadata>
Created by potrace 1.11, written by Peter Selinger 2001-2013
</metadata>
<g transform="translate(0.000000,1616.000000) scale(0.100000,-0.100000)"
fill="#000000" stroke="none">
<path d="M1875 11722 c-2 -2 -21 -6 -42 -8 -21 -1 -63 -6 -93 -9 -90 -11 -154
-17 -177 -18 -13 -1 -23 -3 -23 -6 0 -4 -12 -6 -27 -6 -34 -1 -113 -12 -173
-25 -25 -6 -56 -13 -70 -16 -14 -2 -34 -8 -45 -11 -11 -4 -24 -8 -30 -9 -5 -1
-40 -9 -76 -18 -84 -19 -98 -22 -244 -46 -66 -11 -131 -22 -145 -25 -14 -3
-37 -7 -52 -10 -15 -2 -37 -7 -49 -10 -11 -4 -31 -8 -42 -10 -73 -11 -226 -61
-312 -101 -105 -49 -230 -138 -219 -156 5 -8 8 -20 18 -88 3 -19 12 -71 20
-115 9 -44 18 -93 20 -110 3 -16 10 -55 16 -85 6 -30 13 -73 16 -95 3 -22 8
-47 11 -55 3 -8 7 -28 10 -45 5 -31 29 -168 38 -220 7 -35 25 -139 31 -175 3
-14 7 -31 9 -39 3 -7 8 -34 11 -60 3 -25 9 -62 13 -81 5 -19 9 -42 10 -50 0
-8 5 -37 11 -65 6 -27 13 -66 16 -85 3 -19 7 -44 10 -55 15 -72 44 -231 48
-263 6 -47 48 -132 86 -175 31 -36 105 -87 132 -91 7 -1 18 -5 25 -9 22 -14
189 -6 215 9 4 2 9 0 13 -6 4 -6 10 -8 14 -6 16 10 77 -15 108 -44 59 -53 108
-182 119 -310 2 -25 6 -61 9 -80 3 -19 7 -465 9 -990 2 -525 7 -1043 11 -1150
11 -295 20 -476 29 -640 4 -58 9 -157 11 -220 3 -63 7 -162 10 -220 10 -186
14 -281 20 -470 7 -243 13 -310 35 -402 48 -197 139 -284 351 -336 79 -20 122
-27 224 -37 22 -2 65 -7 95 -11 30 -3 80 -7 110 -9 55 -3 140 -12 191 -20 23
-4 25 -1 28 33 1 20 4 51 5 67 2 17 7 66 10 110 4 44 9 100 12 125 7 54 11
101 18 200 4 41 8 93 11 115 3 22 7 63 10 90 3 47 9 107 20 220 3 28 7 77 10
110 3 33 7 74 10 92 3 17 8 64 10 105 2 40 6 91 9 113 7 56 17 161 22 215 2
25 5 65 8 90 2 25 7 81 11 125 5 44 9 89 10 100 1 11 9 19 16 17 12 -2 163
-76 209 -102 26 -15 184 -105 202 -115 63 -37 172 -104 220 -137 31 -21 62
-38 67 -38 6 0 11 -4 11 -8 0 -5 12 -15 28 -23 15 -7 43 -26 63 -41 20 -15 42
-28 48 -28 6 0 11 -3 11 -8 0 -4 8 -12 19 -17 33 -18 143 -90 156 -102 8 -7
16 -13 19 -13 5 0 147 -92 246 -159 14 -10 32 -20 40 -24 8 -4 29 -16 45 -27
17 -11 37 -23 45 -27 8 -3 17 -9 20 -13 10 -11 188 -110 199 -110 6 0 11 -3
11 -7 0 -5 24 -19 53 -33 28 -13 59 -30 67 -36 8 -7 17 -13 20 -13 3 0 36 -14
74 -31 39 -17 84 -37 100 -45 93 -41 270 -103 368 -128 70 -18 61 -28 117 128
23 64 22 61 50 185 42 193 3 330 -131 459 -61 59 -64 61 -129 107 -30 21 -56
41 -59 44 -3 4 -12 9 -20 13 -8 4 -46 27 -85 52 -38 25 -81 51 -95 57 -14 7
-27 15 -30 18 -5 6 -283 173 -325 196 -39 21 -70 39 -75 44 -10 11 -112 70
-119 70 -4 0 -16 9 -26 20 -10 11 -22 20 -27 20 -11 0 -94 56 -118 80 -9 9
-25 23 -37 31 -11 8 -51 42 -89 75 -38 34 -91 80 -117 103 l-48 41 33 20 c18
11 83 51 143 90 245 156 369 222 445 236 120 23 304 76 380 111 200 90 342
178 491 303 116 97 329 319 434 454 17 21 35 44 40 50 11 11 112 147 191 256
65 90 186 302 199 350 1 3 15 48 33 101 31 97 34 107 51 189 47 226 47 489 0
720 -23 112 -20 100 -60 230 -17 57 -35 111 -40 120 -4 8 -22 49 -41 90 -105
241 -255 414 -598 690 -58 46 -112 92 -120 100 -8 9 -22 21 -31 26 -9 5 -50
39 -90 76 -106 95 -127 114 -189 161 -30 23 -56 45 -58 50 -2 4 -10 7 -17 7
-7 0 -15 4 -17 8 -6 16 -211 134 -323 187 -93 44 -291 122 -329 129 -6 2 -31
9 -56 16 -25 7 -49 14 -55 16 -5 1 -37 9 -70 17 -57 15 -147 34 -285 61 -30 6
-91 15 -139 22 -19 2 -48 7 -65 10 -17 3 -51 7 -76 9 -25 2 -46 5 -47 6 -6 3
-20 5 -93 13 -41 4 -88 10 -105 12 -32 4 -84 10 -175 20 -90 10 -118 12 -445
29 -38 2 -108 7 -155 10 -105 8 -260 12 -265 7z m1310 -2246 c55 -8 155 -31
195 -46 14 -5 39 -15 55 -21 17 -7 33 -13 36 -13 3 -1 33 -18 67 -39 64 -39
69 -48 92 -152 7 -27 14 -59 16 -70 16 -68 11 -256 -10 -350 -27 -121 -112
-298 -203 -419 -67 -90 -204 -233 -282 -296 -24 -19 -52 -43 -63 -52 -10 -10
-23 -18 -28 -18 -5 0 -10 -3 -10 -8 0 -4 -18 -18 -40 -32 -22 -14 -40 -27 -40
-30 0 -3 -20 -16 -45 -30 -25 -14 -45 -28 -45 -32 0 -5 -5 -8 -11 -8 -6 0 -23
-8 -37 -19 -73 -51 -304 -168 -426 -216 -50 -20 -100 -40 -111 -44 -18 -7 -89
-30 -143 -46 l-23 -7 6 179 c3 98 8 268 10 378 11 518 16 703 18 738 1 21 -1
43 -5 50 -4 6 -4 15 -1 21 4 5 8 95 10 200 4 187 9 355 12 367 0 3 40 6 89 6
111 1 354 12 359 16 6 7 506 0 558 -7z"/>
<path d="M15344 10081 c-46 -11 -138 -61 -171 -91 -92 -88 -146 -189 -160
-300 -7 -61 -4 -190 6 -208 6 -11 8 -22 6 -24 -3 -3 5 -36 17 -74 12 -38 23
-75 24 -82 1 -7 9 -24 18 -37 9 -13 16 -29 16 -34 0 -25 90 -157 148 -217 57
-59 151 -106 187 -95 6 2 17 3 25 3 41 -1 138 22 185 44 57 27 122 89 149 143
41 79 52 240 26 357 -7 27 -14 59 -16 72 -5 25 -30 105 -43 137 -26 62 -116
236 -134 258 -12 14 -39 46 -60 71 -61 73 -134 98 -223 77z"/>
<path d="M13096 8953 c-1 -2 -27 -5 -57 -8 -120 -10 -258 -63 -314 -120 -16
-17 -64 -53 -105 -80 -61 -40 -194 -163 -246 -227 -76 -94 -151 -201 -225
-323 -34 -55 -69 -111 -78 -125 -8 -14 -21 -36 -28 -49 -7 -13 -25 -47 -40
-75 -16 -28 -31 -53 -34 -56 -8 -6 -275 -543 -313 -630 -74 -168 -64 -153
-103 -147 -20 4 -37 8 -39 10 -2 2 -6 44 -9 93 -4 49 -8 116 -10 149 -12 186
-17 257 -20 315 -3 68 -11 180 -20 288 -3 35 -8 93 -10 130 -4 64 -5 67 -62
125 -104 107 -188 187 -198 187 -3 0 -16 9 -27 20 -26 24 -196 108 -233 115
-5 1 -12 3 -15 4 -14 7 -59 15 -150 29 -88 13 -207 8 -341 -14 -121 -19 -347
-123 -407 -186 -9 -10 -20 -18 -23 -18 -16 0 -129 -123 -129 -140 0 -6 -4 -10
-8 -10 -5 0 -28 -39 -52 -87 -25 -49 -53 -99 -62 -112 -10 -13 -18 -32 -18
-42 0 -11 -3 -19 -7 -19 -5 0 -21 -26 -38 -58 -16 -31 -32 -59 -35 -62 -4 -3
-9 -12 -13 -20 -3 -8 -22 -42 -42 -75 -20 -33 -38 -68 -42 -77 -3 -10 -8 -18
-12 -18 -4 0 -13 -16 -21 -35 -8 -19 -17 -35 -21 -35 -4 0 -11 -10 -15 -22 -3
-13 -15 -35 -25 -49 -10 -14 -16 -29 -12 -33 3 -3 1 -6 -5 -6 -10 0 -17 22
-26 85 -2 17 -7 48 -10 70 -4 22 -9 83 -11 135 -6 134 -20 243 -33 264 -3 6
-7 16 -7 21 -1 20 -38 85 -65 114 -33 34 -104 78 -140 85 -14 3 -41 9 -60 14
-19 5 -54 8 -78 8 l-43 -1 -35 -78 c-25 -58 -35 -94 -37 -142 -1 -36 -4 -65
-7 -65 -3 0 -5 -26 -6 -58 0 -31 -4 -97 -8 -147 -18 -258 -26 -629 -31 -1510
-3 -554 -1 -703 10 -755 7 -36 14 -67 16 -70 1 -3 4 -12 6 -20 3 -8 14 -32 25
-53 62 -117 192 -185 393 -202 67 -6 343 -6 375 -1 14 3 43 7 65 11 60 9 134
32 172 55 19 11 38 20 43 20 20 0 140 112 140 130 0 5 5 10 10 10 6 0 10 6 10
14 0 8 4 16 8 18 10 4 58 126 107 268 19 58 38 112 42 120 3 8 7 18 8 23 2 4
3 8 5 10 1 1 3 9 5 17 5 26 87 274 93 285 4 6 7 16 8 23 2 13 120 375 131 402
3 8 7 20 8 25 9 36 76 192 138 318 l72 149 60 -44 c64 -47 109 -115 119 -178
8 -51 58 -182 76 -200 3 -3 14 -18 24 -35 80 -125 262 -244 541 -352 50 -19
99 -39 110 -44 33 -15 118 -16 161 -2 23 8 55 26 72 42 36 31 82 96 82 114 0
7 4 17 9 23 4 5 18 36 29 69 12 33 33 92 47 130 14 39 28 77 30 85 6 21 49
139 63 173 7 15 15 40 18 55 4 15 13 37 20 50 8 12 13 22 10 22 -2 0 9 35 26
78 16 42 31 84 33 92 2 8 24 69 50 135 25 66 48 125 49 130 2 6 8 21 13 35 95
227 117 280 126 308 6 17 14 32 19 32 4 0 8 7 8 15 0 25 77 123 123 156 40 30
58 39 102 53 38 11 44 -34 39 -297 -11 -510 -6 -728 22 -957 3 -25 7 -58 8
-75 2 -16 6 -37 9 -45 4 -13 10 -44 33 -160 3 -14 10 -43 16 -65 6 -22 12 -44
14 -50 1 -5 16 -63 33 -129 17 -65 33 -126 35 -135 2 -9 6 -23 9 -31 3 -8 19
-60 37 -115 17 -55 35 -109 40 -120 41 -96 75 -163 88 -177 8 -10 12 -18 8
-18 -6 0 85 -131 109 -156 5 -6 21 -26 35 -45 46 -62 200 -209 219 -209 6 0
11 -3 11 -7 0 -9 79 -50 145 -78 61 -24 186 -26 265 -2 54 16 193 86 210 106
3 3 27 24 55 46 27 22 68 59 90 82 39 40 41 44 40 107 0 36 2 66 5 66 10 0 8
339 -2 377 -5 21 -14 54 -19 73 -6 19 -12 44 -14 55 -2 11 -4 20 -5 20 -2 0
-6 20 -14 65 -4 19 -9 42 -11 50 -4 14 -10 48 -19 108 -34 220 -38 323 -42
967 -2 314 -5 588 -8 610 -12 108 -17 142 -22 165 -3 14 -7 34 -9 45 -2 11 -4
21 -5 23 -3 2 -3 3 -14 52 -10 41 -83 218 -100 240 -6 8 -20 32 -30 52 -10 20
-27 46 -37 57 -11 11 -19 23 -19 25 0 3 -18 29 -40 58 -22 29 -40 59 -40 66 0
6 -4 12 -9 12 -5 0 -11 8 -14 18 -2 9 -45 37 -93 62 -49 25 -90 48 -92 53 -2
4 -8 7 -14 7 -5 0 -57 27 -116 59 -108 60 -179 86 -260 97 -48 7 -171 11 -176
7z"/>
<path d="M7328 8605 c-2 -1 -28 -5 -58 -8 -89 -10 -269 -55 -345 -86 -109 -45
-186 -84 -270 -134 -55 -33 -102 -63 -105 -66 -3 -3 -36 -31 -75 -62 -83 -67
-169 -150 -222 -216 -21 -27 -43 -52 -49 -58 -6 -5 -47 -55 -90 -110 -43 -55
-82 -101 -86 -103 -5 -2 -8 -10 -8 -17 0 -7 -4 -15 -9 -17 -6 -2 -284 -368
-369 -487 -9 -13 -23 -29 -29 -36 -7 -8 -13 -18 -13 -24 0 -5 -6 -14 -13 -18
-6 -4 -26 -28 -42 -53 -17 -24 -37 -51 -45 -60 -8 -9 -26 -32 -40 -53 -14 -20
-28 -37 -32 -37 -5 0 -8 -5 -8 -11 0 -6 -6 -17 -12 -24 -27 -30 -35 -42 -69
-100 -33 -56 -72 -134 -74 -145 0 -3 -9 -20 -18 -37 -10 -18 -15 -33 -11 -33
3 0 -1 -11 -10 -25 -9 -14 -14 -25 -10 -25 4 0 1 -7 -6 -15 -7 -8 -10 -15 -6
-15 3 0 1 -12 -5 -27 -13 -36 -38 -153 -47 -223 -10 -86 -6 -290 8 -350 6 -30
14 -71 17 -90 10 -67 78 -241 115 -292 11 -16 16 -28 11 -28 -4 0 -3 -4 2 -8
6 -4 22 -25 36 -47 51 -79 198 -215 231 -215 8 0 18 -4 24 -9 19 -19 108 -28
164 -16 78 15 144 55 283 169 180 147 374 333 542 520 44 49 92 102 106 118
15 15 35 40 45 54 11 15 24 31 30 38 6 6 57 72 112 146 56 74 110 145 119 156
10 12 25 32 33 44 8 13 23 30 33 39 9 8 17 19 17 23 0 4 8 17 18 29 62 74 58
74 67 9 7 -52 24 -154 31 -190 3 -14 6 -32 6 -40 1 -18 21 -137 33 -190 3 -14
8 -36 11 -50 4 -20 18 -75 29 -110 1 -3 5 -18 9 -35 4 -16 11 -39 16 -50 4
-11 18 -47 31 -80 44 -114 134 -269 174 -297 5 -4 7 -8 3 -8 -4 0 21 -27 57
-60 62 -58 159 -126 186 -132 8 -2 16 -6 19 -9 8 -9 129 -47 195 -60 87 -17
221 -18 285 -1 50 12 140 59 140 73 0 3 9 14 19 26 23 24 51 77 57 106 3 12 9
42 14 67 8 40 6 401 -4 570 -8 132 -17 256 -22 305 -4 47 -7 78 -18 260 -3 39
-7 97 -10 130 -4 33 -8 96 -11 140 -8 128 -14 206 -20 265 -13 129 -16 197
-18 400 -2 118 -5 220 -9 225 -3 6 -9 27 -12 48 -15 93 -91 282 -155 382 -74
117 -180 218 -269 256 -34 15 -138 49 -162 54 -3 0 -27 6 -55 13 -27 6 -66 14
-85 17 -37 7 -296 15 -302 10z m-251 -613 c3 -18 6 -144 3 -152 -1 -3 -3 -23
-4 -45 -2 -22 -6 -53 -10 -70 -3 -16 -9 -40 -11 -52 -3 -13 -7 -32 -10 -43 -3
-11 -7 -28 -9 -38 -29 -130 -266 -642 -298 -642 -5 0 -6 -4 -3 -10 3 -5 2 -10
-3 -10 -5 0 -12 -8 -16 -17 -3 -10 -14 -30 -23 -45 -41 -63 -139 -204 -149
-213 -5 -5 -23 -28 -39 -50 -16 -22 -52 -67 -79 -99 -165 -194 -322 -344 -478
-459 -104 -76 -173 -116 -186 -108 -16 9 -61 123 -78 191 -11 49 -13 192 -2
230 2 8 8 31 12 50 18 76 97 210 181 305 37 42 165 183 195 215 24 26 141 155
189 208 13 15 65 72 115 127 84 91 113 123 193 211 15 17 51 56 78 86 28 30
88 96 135 148 47 51 96 105 110 120 14 15 58 64 99 108 41 45 77 80 80 77 3
-3 6 -13 8 -23z"/>
<path d="M14883 8492 c-20 -42 -39 -79 -42 -82 -14 -12 -67 -166 -75 -216 -10
-65 -24 -352 -31 -644 -6 -204 -14 -435 -16 -435 0 0 -2 -27 -4 -60 -7 -104
-14 -198 -20 -255 -3 -30 -7 -90 -10 -133 -2 -43 -7 -83 -11 -89 -4 -7 -3 -8
4 -4 9 5 10 1 4 -16 -8 -22 -7 -74 2 -110 2 -10 0 -18 -6 -18 -5 0 -7 -4 -4
-9 3 -5 8 -40 11 -77 5 -59 21 -177 29 -209 2 -5 7 -28 11 -50 11 -48 10 -46
17 -65 3 -8 11 -33 17 -55 13 -41 16 -51 46 -120 51 -119 117 -231 189 -323
20 -26 131 -137 151 -152 23 -17 115 -63 160 -80 29 -11 40 -14 85 -24 11 -3
24 -8 30 -11 28 -17 225 -11 295 9 6 2 25 7 43 11 17 4 32 11 32 16 0 4 10 11
22 15 11 3 38 23 60 44 21 21 38 35 38 32 0 -9 62 98 65 112 1 6 7 23 13 38
48 117 69 289 65 525 -2 87 -2 300 -2 473 4 1134 3 1180 -20 1263 -19 73 -39
119 -102 235 -12 23 -26 42 -31 42 -4 0 -8 5 -8 11 0 31 -210 249 -239 249 -5
0 -14 7 -21 15 -16 19 -153 88 -216 109 -53 17 -58 18 -169 41 -38 8 -81 17
-95 20 -14 2 -52 11 -85 20 -33 8 -71 17 -85 19 -14 2 -25 5 -25 6 0 1 -8 3
-18 5 -14 3 -26 -14 -54 -73z"/>
</g>
</svg>
